<?xml version="1.0" encoding="UTF-8"?>
<svg xmlns="http://www.w3.org/2000/svg" xmlns:xlink="http://www.w3.org/1999/xlink" fill-opacity="1" color-rendering="auto" color-interpolation="auto" stroke="black" text-rendering="auto" stroke-linecap="square" width="651" stroke-miterlimit="10" stroke-opacity="1" shape-rendering="auto" fill="black" stroke-dasharray="none" font-weight="normal" stroke-width="1" height="224" font-family="'Dialog'" font-style="normal" stroke-linejoin="miter" font-size="12" stroke-dashoffset="0" image-rendering="auto">
  <!--Generated by ySVG 2.5-->
  <defs id="genericDefs"/>
  <g>
    <defs id="defs1">
      <clipPath clipPathUnits="userSpaceOnUse" id="clipPath1">
        <path d="M0 0 L651 0 L651 224 L0 224 L0 0 Z"/>
      </clipPath>
      <clipPath clipPathUnits="userSpaceOnUse" id="clipPath2">
        <path d="M-51 55 L600 55 L600 279 L-51 279 L-51 55 Z"/>
      </clipPath>
    </defs>
    <g fill="white" text-rendering="geometricPrecision" shape-rendering="geometricPrecision" transform="translate(51,-55)" stroke="white">
      <rect x="-51" width="651" height="224" y="55" clip-path="url(#clipPath2)" stroke="none"/>
    </g>
    <g text-rendering="geometricPrecision" stroke-dasharray="6,2" stroke-miterlimit="1.45" shape-rendering="geometricPrecision" transform="matrix(1,0,0,1,51,-55)" stroke-linecap="butt">
      <rect fill="none" x="454.0208" width="130" height="104" y="70.4375" clip-path="url(#clipPath2)"/>
      <rect fill="none" x="66.0208" width="167" height="104" y="70.4375" clip-path="url(#clipPath2)"/>
    </g>
    <g fill="rgb(204,255,255)" text-rendering="geometricPrecision" shape-rendering="geometricPrecision" transform="matrix(1,0,0,1,51,-55)" stroke="rgb(204,255,255)">
      <rect x="459.5208" y="76.4375" clip-path="url(#clipPath2)" width="119" rx="4" ry="4" height="34" stroke="none"/>
    </g>
    <g text-rendering="geometricPrecision" stroke-miterlimit="1.45" shape-rendering="geometricPrecision" font-family="sans-serif" transform="matrix(1,0,0,1,51,-55)" stroke-linecap="butt">
      <text x="486.223" xml:space="preserve" y="97.9727" clip-path="url(#clipPath2)" stroke="none">pointerUp()</text>
      <rect x="459.5208" y="76.4375" clip-path="url(#clipPath2)" fill="none" width="119" rx="4" ry="4" height="34" stroke="rgb(153,153,153)"/>
    </g>
    <g fill="rgb(204,255,255)" text-rendering="geometricPrecision" shape-rendering="geometricPrecision" transform="matrix(1,0,0,1,51,-55)" stroke="rgb(204,255,255)">
      <rect x="72.0208" y="76.4375" clip-path="url(#clipPath2)" width="155" rx="4" ry="4" height="34" stroke="none"/>
    </g>
    <g text-rendering="geometricPrecision" stroke-miterlimit="1.45" shape-rendering="geometricPrecision" font-family="sans-serif" transform="matrix(1,0,0,1,51,-55)" stroke-linecap="butt">
      <text x="81.0042" xml:space="preserve" y="97.9727" clip-path="url(#clipPath2)" stroke="none">pointerDown(element1)</text>
      <rect x="72.0208" y="76.4375" clip-path="url(#clipPath2)" fill="none" width="155" rx="4" ry="4" height="34" stroke="rgb(153,153,153)"/>
    </g>
    <g fill="rgb(255,255,204)" text-rendering="geometricPrecision" shape-rendering="geometricPrecision" transform="matrix(1,0,0,1,51,-55)" stroke="rgb(255,255,204)">
      <rect x="72.0208" y="130.4375" clip-path="url(#clipPath2)" width="155" rx="4" ry="4" height="34" stroke="none"/>
    </g>
    <g text-rendering="geometricPrecision" stroke-miterlimit="1.45" shape-rendering="geometricPrecision" font-family="sans-serif" transform="matrix(1,0,0,1,51,-55)" stroke-linecap="butt">
      <text x="81.0042" xml:space="preserve" y="151.9727" clip-path="url(#clipPath2)" stroke="none">pointerDown(element3)</text>
      <rect x="72.0208" y="130.4375" clip-path="url(#clipPath2)" fill="none" width="155" rx="4" ry="4" height="34" stroke="rgb(153,153,153)"/>
      <text x="128.0228" xml:space="preserve" y="238.4727" clip-path="url(#clipPath2)" stroke="none">Tick 1</text>
      <text x="319.0228" xml:space="preserve" y="238.4727" clip-path="url(#clipPath2)" stroke="none">Tick 2</text>
      <text x="497.5228" xml:space="preserve" y="238.4727" clip-path="url(#clipPath2)" stroke="none">Tick 3</text>
    </g>
    <g fill="rgb(204,255,255)" text-rendering="geometricPrecision" shape-rendering="geometricPrecision" transform="matrix(1,0,0,1,51,-55)" stroke="rgb(204,255,255)">
      <rect x="-35.9792" y="76.4375" clip-path="url(#clipPath2)" width="84" rx="4" ry="4" height="34" stroke="none"/>
    </g>
    <g text-rendering="geometricPrecision" stroke-miterlimit="1.45" shape-rendering="geometricPrecision" font-family="sans-serif" transform="matrix(1,0,0,1,51,-55)" stroke-linecap="butt">
      <text x="-19.0104" xml:space="preserve" y="97.9727" clip-path="url(#clipPath2)" stroke="none">source 1</text>
      <rect x="-35.9792" y="76.4375" clip-path="url(#clipPath2)" fill="none" width="84" rx="4" ry="4" height="34" stroke="rgb(153,153,153)"/>
    </g>
    <g fill="rgb(255,255,204)" text-rendering="geometricPrecision" shape-rendering="geometricPrecision" transform="matrix(1,0,0,1,51,-55)" stroke="rgb(255,255,204)">
      <rect x="-35.9792" y="130.4375" clip-path="url(#clipPath2)" width="84" rx="4" ry="4" height="34" stroke="none"/>
    </g>
    <g text-rendering="geometricPrecision" stroke-miterlimit="1.45" shape-rendering="geometricPrecision" font-family="sans-serif" transform="matrix(1,0,0,1,51,-55)" stroke-linecap="butt">
      <text x="-19.0104" xml:space="preserve" y="151.9727" clip-path="url(#clipPath2)" stroke="none">source 2</text>
      <rect x="-35.9792" y="130.4375" clip-path="url(#clipPath2)" fill="none" width="84" rx="4" ry="4" height="34" stroke="rgb(153,153,153)"/>
    </g>
    <g fill="rgb(204,255,255)" text-rendering="geometricPrecision" shape-rendering="geometricPrecision" transform="matrix(1,0,0,1,51,-55)" stroke="rgb(204,255,255)">
      <rect x="263.0208" y="76.4375" clip-path="url(#clipPath2)" width="155" rx="4" ry="4" height="34" stroke="none"/>
    </g>
    <g text-rendering="geometricPrecision" stroke-miterlimit="1.45" shape-rendering="geometricPrecision" font-family="sans-serif" transform="matrix(1,0,0,1,51,-55)" stroke-linecap="butt">
      <text x="273.2289" xml:space="preserve" y="97.9727" clip-path="url(#clipPath2)" stroke="none">pointerMove(element2)</text>
      <rect x="263.0208" y="76.4375" clip-path="url(#clipPath2)" fill="none" width="155" rx="4" ry="4" height="34" stroke="rgb(153,153,153)"/>
    </g>
    <g fill="rgb(255,255,204)" text-rendering="geometricPrecision" shape-rendering="geometricPrecision" transform="matrix(1,0,0,1,51,-55)" stroke="rgb(255,255,204)">
      <rect x="263.0208" y="130.4375" clip-path="url(#clipPath2)" width="155" rx="4" ry="4" height="34" stroke="none"/>
    </g>
    <g text-rendering="geometricPrecision" stroke-miterlimit="1.45" shape-rendering="geometricPrecision" font-family="sans-serif" transform="matrix(1,0,0,1,51,-55)" stroke-linecap="butt">
      <text x="319.4037" xml:space="preserve" y="151.9727" clip-path="url(#clipPath2)" stroke="none">pause()</text>
      <rect x="263.0208" y="130.4375" clip-path="url(#clipPath2)" fill="none" width="155" rx="4" ry="4" height="34" stroke="rgb(153,153,153)"/>
    </g>
    <g fill="rgb(255,255,204)" text-rendering="geometricPrecision" shape-rendering="geometricPrecision" transform="matrix(1,0,0,1,51,-55)" stroke="rgb(255,255,204)">
      <rect x="459.5208" y="131.125" clip-path="url(#clipPath2)" width="119" rx="4" ry="4" height="34" stroke="none"/>
    </g>
    <g text-rendering="geometricPrecision" stroke-miterlimit="1.45" shape-rendering="geometricPrecision" font-family="sans-serif" transform="matrix(1,0,0,1,51,-55)" stroke-linecap="butt">
      <text x="486.223" xml:space="preserve" y="152.6602" clip-path="url(#clipPath2)" stroke="none">pointerUp()</text>
      <rect x="459.5208" y="131.125" clip-path="url(#clipPath2)" fill="none" width="119" rx="4" ry="4" height="34" stroke="rgb(153,153,153)"/>
      <rect x="257.0208" y="70.4375" clip-path="url(#clipPath2)" fill="none" width="167" stroke-dasharray="6,2" height="104"/>
      <path fill="none" stroke-dasharray="6,2" d="M149.5208 174.4375 L149.5208 196.4375" clip-path="url(#clipPath2)"/>
      <path stroke-dasharray="6,2" d="M149.5208 204.4375 L154.5208 192.4375 L149.5208 195.4375 L144.5208 192.4375 Z" clip-path="url(#clipPath2)" stroke="none"/>
      <path fill="none" d="M149.5208 174.4375 L149.5208 196.4375" clip-path="url(#clipPath2)"/>
      <path d="M149.5208 204.4375 L154.5208 192.4375 L149.5208 195.4375 L144.5208 192.4375 Z" clip-path="url(#clipPath2)" stroke="none"/>
      <path fill="none" d="M519.0208 174.4375 L519.0208 196.4375" clip-path="url(#clipPath2)"/>
      <path d="M519.0208 204.4375 L524.0208 192.4375 L519.0208 195.4375 L514.0208 192.4375 Z" clip-path="url(#clipPath2)" stroke="none"/>
      <path fill="none" d="M48.0268 93.4375 L72.0623 93.4375" clip-path="url(#clipPath2)" stroke="rgb(153,153,153)"/>
      <path fill="none" d="M48.0268 147.4375 L72.0623 147.4375" clip-path="url(#clipPath2)" stroke="rgb(153,153,153)"/>
      <path fill="none" d="M226.9747 93.4375 L263.04 93.4375" clip-path="url(#clipPath2)" stroke="rgb(153,153,153)"/>
      <path fill="none" d="M418.0481 93.4375 L459.512 93.4375" clip-path="url(#clipPath2)" stroke="rgb(153,153,153)"/>
      <path fill="none" d="M226.9747 147.4375 L263.04 147.4375" clip-path="url(#clipPath2)" stroke="rgb(153,153,153)"/>
      <path fill="none" d="M418.0481 147.7361 L459.512 147.8958" clip-path="url(#clipPath2)" stroke="rgb(153,153,153)"/>
      <path fill="none" d="M340.5208 174.4375 L340.5208 196.4375" clip-path="url(#clipPath2)"/>
      <path d="M340.5208 204.4375 L345.5208 192.4375 L340.5208 195.4375 L335.5208 192.4375 Z" clip-path="url(#clipPath2)" stroke="none"/>
    </g>
  </g>
</svg>
