<?xml version="1.0" encoding="UTF-8"?>
<svg xmlns="http://www.w3.org/2000/svg" xmlns:xlink="http://www.w3.org/1999/xlink" fill-opacity="1" color-rendering="auto" color-interpolation="auto" stroke="black" text-rendering="auto" stroke-linecap="square" width="651" stroke-miterlimit="10" stroke-opacity="1" shape-rendering="auto" fill="black" stroke-dasharray="none" font-weight="normal" stroke-width="1" height="224" font-family="'Dialog'" font-style="normal" stroke-linejoin="miter" font-size="12" stroke-dashoffset="0" image-rendering="auto">
  <!--Generated by ySVG 2.5-->
  <defs id="genericDefs"/>
  <g>
    <defs id="defs1">
      <clipPath clipPathUnits="userSpaceOnUse" id="clipPath1">
        <path d="M0 0 L651 0 L651 224 L0 224 L0 0 Z"/>
      </clipPath>
      <clipPath clipPathUnits="userSpaceOnUse" id="clipPath2">
        <path d="M-34 -81 L617 -81 L617 143 L-34 143 L-34 -81 Z"/>
      </clipPath>
    </defs>
    <g fill="white" text-rendering="geometricPrecision" shape-rendering="geometricPrecision" transform="translate(34,81)" stroke="white">
      <rect x="-34" width="651" height="224" y="-81" clip-path="url(#clipPath2)" stroke="none"/>
    </g>
    <g text-rendering="geometricPrecision" stroke-dasharray="6,2" stroke-miterlimit="1.45" shape-rendering="geometricPrecision" transform="matrix(1,0,0,1,34,81)" stroke-linecap="butt">
      <rect fill="none" x="274.5208" width="167" height="104" y="-65.5625" clip-path="url(#clipPath2)"/>
      <rect fill="none" x="471.5208" width="130" height="104" y="-65.5625" clip-path="url(#clipPath2)"/>
      <rect fill="none" x="83.5208" width="167" height="104" y="-65.5625" clip-path="url(#clipPath2)"/>
    </g>
    <g fill="rgb(204,255,255)" text-rendering="geometricPrecision" shape-rendering="geometricPrecision" transform="matrix(1,0,0,1,34,81)" stroke="rgb(204,255,255)">
      <rect x="477.0208" y="-59.5625" clip-path="url(#clipPath2)" width="119" rx="4" ry="4" height="34" stroke="none"/>
    </g>
    <g text-rendering="geometricPrecision" stroke-miterlimit="1.45" shape-rendering="geometricPrecision" font-family="sans-serif" transform="matrix(1,0,0,1,34,81)" stroke-linecap="butt">
      <text x="503.723" xml:space="preserve" y="-38.0273" clip-path="url(#clipPath2)" stroke="none">pointerUp()</text>
      <rect x="477.0208" y="-59.5625" clip-path="url(#clipPath2)" fill="none" width="119" rx="4" ry="4" height="34" stroke="rgb(153,153,153)"/>
    </g>
    <g fill="rgb(204,255,255)" text-rendering="geometricPrecision" shape-rendering="geometricPrecision" transform="matrix(1,0,0,1,34,81)" stroke="rgb(204,255,255)">
      <rect x="89.5208" y="-59.5625" clip-path="url(#clipPath2)" width="155" rx="4" ry="4" height="34" stroke="none"/>
    </g>
    <g text-rendering="geometricPrecision" stroke-miterlimit="1.45" shape-rendering="geometricPrecision" font-family="sans-serif" transform="matrix(1,0,0,1,34,81)" stroke-linecap="butt">
      <text x="98.5042" xml:space="preserve" y="-38.0273" clip-path="url(#clipPath2)" stroke="none">pointerDown(element1)</text>
      <rect x="89.5208" y="-59.5625" clip-path="url(#clipPath2)" fill="none" width="155" rx="4" ry="4" height="34" stroke="rgb(153,153,153)"/>
    </g>
    <g fill="rgb(255,255,204)" text-rendering="geometricPrecision" shape-rendering="geometricPrecision" transform="matrix(1,0,0,1,34,81)" stroke="rgb(255,255,204)">
      <rect x="477.0208" y="-5.5625" clip-path="url(#clipPath2)" width="119" rx="4" ry="4" height="34" stroke="none"/>
    </g>
    <g text-rendering="geometricPrecision" stroke-miterlimit="1.45" shape-rendering="geometricPrecision" font-family="sans-serif" transform="matrix(1,0,0,1,34,81)" stroke-linecap="butt">
      <text x="503.723" xml:space="preserve" y="15.9727" clip-path="url(#clipPath2)" stroke="none">pointerUp()</text>
      <rect x="477.0208" y="-5.5625" clip-path="url(#clipPath2)" fill="none" width="119" rx="4" ry="4" height="34" stroke="rgb(153,153,153)"/>
    </g>
    <g fill="rgb(255,255,204)" text-rendering="geometricPrecision" shape-rendering="geometricPrecision" transform="matrix(1,0,0,1,34,81)" stroke="rgb(255,255,204)">
      <rect x="89.5208" y="-5.5625" clip-path="url(#clipPath2)" width="155" rx="4" ry="4" height="34" stroke="none"/>
    </g>
    <g text-rendering="geometricPrecision" stroke-miterlimit="1.45" shape-rendering="geometricPrecision" font-family="sans-serif" transform="matrix(1,0,0,1,34,81)" stroke-linecap="butt">
      <text x="98.5042" xml:space="preserve" y="15.9727" clip-path="url(#clipPath2)" stroke="none">pointerDown(element2)</text>
      <rect x="89.5208" y="-5.5625" clip-path="url(#clipPath2)" fill="none" width="155" rx="4" ry="4" height="34" stroke="rgb(153,153,153)"/>
      <text x="145.5228" xml:space="preserve" y="102.4727" clip-path="url(#clipPath2)" stroke="none">Tick 1</text>
      <text x="336.5228" xml:space="preserve" y="102.4727" clip-path="url(#clipPath2)" stroke="none">Tick 2</text>
      <text x="515.0228" xml:space="preserve" y="102.4727" clip-path="url(#clipPath2)" stroke="none">Tick 3</text>
    </g>
    <g fill="rgb(204,255,255)" text-rendering="geometricPrecision" shape-rendering="geometricPrecision" transform="matrix(1,0,0,1,34,81)" stroke="rgb(204,255,255)">
      <rect x="-18.4792" y="-59.5625" clip-path="url(#clipPath2)" width="84" rx="4" ry="4" height="34" stroke="none"/>
    </g>
    <g text-rendering="geometricPrecision" stroke-miterlimit="1.45" shape-rendering="geometricPrecision" font-family="sans-serif" transform="matrix(1,0,0,1,34,81)" stroke-linecap="butt">
      <text x="-1.5104" xml:space="preserve" y="-38.0273" clip-path="url(#clipPath2)" stroke="none">source 1</text>
      <rect x="-18.4792" y="-59.5625" clip-path="url(#clipPath2)" fill="none" width="84" rx="4" ry="4" height="34" stroke="rgb(153,153,153)"/>
    </g>
    <g fill="rgb(255,255,204)" text-rendering="geometricPrecision" shape-rendering="geometricPrecision" transform="matrix(1,0,0,1,34,81)" stroke="rgb(255,255,204)">
      <rect x="-18.4792" y="-5.5625" clip-path="url(#clipPath2)" width="84" rx="4" ry="4" height="34" stroke="none"/>
    </g>
    <g text-rendering="geometricPrecision" stroke-miterlimit="1.45" shape-rendering="geometricPrecision" font-family="sans-serif" transform="matrix(1,0,0,1,34,81)" stroke-linecap="butt">
      <text x="-1.5104" xml:space="preserve" y="15.9727" clip-path="url(#clipPath2)" stroke="none">source 2</text>
      <rect x="-18.4792" y="-5.5625" clip-path="url(#clipPath2)" fill="none" width="84" rx="4" ry="4" height="34" stroke="rgb(153,153,153)"/>
    </g>
    <g fill="rgb(204,255,255)" text-rendering="geometricPrecision" shape-rendering="geometricPrecision" transform="matrix(1,0,0,1,34,81)" stroke="rgb(204,255,255)">
      <rect x="280.5208" y="-59.5625" clip-path="url(#clipPath2)" width="155" rx="4" ry="4" height="34" stroke="none"/>
    </g>
    <g text-rendering="geometricPrecision" stroke-miterlimit="1.45" shape-rendering="geometricPrecision" font-family="sans-serif" transform="matrix(1,0,0,1,34,81)" stroke-linecap="butt">
      <text x="333.1097" xml:space="preserve" y="-38.0273" clip-path="url(#clipPath2)" stroke="none">pause(5)</text>
      <rect x="280.5208" y="-59.5625" clip-path="url(#clipPath2)" fill="none" width="155" rx="4" ry="4" height="34" stroke="rgb(153,153,153)"/>
    </g>
    <g fill="rgb(255,255,204)" text-rendering="geometricPrecision" shape-rendering="geometricPrecision" transform="matrix(1,0,0,1,34,81)" stroke="rgb(255,255,204)">
      <rect x="280.5208" y="-5.5625" clip-path="url(#clipPath2)" width="155" rx="4" ry="4" height="34" stroke="none"/>
    </g>
    <g text-rendering="geometricPrecision" stroke-miterlimit="1.45" shape-rendering="geometricPrecision" font-family="sans-serif" transform="matrix(1,0,0,1,34,81)" stroke-linecap="butt">
      <text x="290.7289" xml:space="preserve" y="15.9727" clip-path="url(#clipPath2)" stroke="none">pointerMove(element3)</text>
      <rect x="280.5208" y="-5.5625" clip-path="url(#clipPath2)" fill="none" width="155" rx="4" ry="4" height="34" stroke="rgb(153,153,153)"/>
      <path fill="none" stroke-dasharray="6,2" d="M167.0208 38.4375 L167.0208 60.4375" clip-path="url(#clipPath2)"/>
      <path stroke-dasharray="6,2" d="M167.0208 68.4375 L172.0208 56.4375 L167.0208 59.4375 L162.0208 56.4375 Z" clip-path="url(#clipPath2)" stroke="none"/>
      <path fill="none" d="M167.0208 38.4375 L167.0208 60.4375" clip-path="url(#clipPath2)"/>
      <path d="M167.0208 68.4375 L172.0208 56.4375 L167.0208 59.4375 L162.0208 56.4375 Z" clip-path="url(#clipPath2)" stroke="none"/>
      <path fill="none" d="M358.0208 38.4375 L358.0208 60.4375" clip-path="url(#clipPath2)"/>
      <path d="M358.0208 68.4375 L363.0208 56.4375 L358.0208 59.4375 L353.0208 56.4375 Z" clip-path="url(#clipPath2)" stroke="none"/>
      <path fill="none" d="M536.5208 38.4375 L536.5208 60.4375" clip-path="url(#clipPath2)"/>
      <path d="M536.5208 68.4375 L541.5208 56.4375 L536.5208 59.4375 L531.5208 56.4375 Z" clip-path="url(#clipPath2)" stroke="none"/>
      <path fill="none" d="M65.5268 -42.5625 L89.5623 -42.5625" clip-path="url(#clipPath2)" stroke="rgb(153,153,153)"/>
      <path fill="none" d="M65.5268 11.4375 L89.5623 11.4375" clip-path="url(#clipPath2)" stroke="rgb(153,153,153)"/>
      <path fill="none" d="M244.4747 -42.5625 L280.54 -42.5625" clip-path="url(#clipPath2)" stroke="rgb(153,153,153)"/>
      <path fill="none" d="M435.5481 -42.5625 L477.012 -42.5625" clip-path="url(#clipPath2)" stroke="rgb(153,153,153)"/>
      <path fill="none" d="M244.4747 11.4375 L280.54 11.4375" clip-path="url(#clipPath2)" stroke="rgb(153,153,153)"/>
      <path fill="none" d="M477.0354 11.4375 L435.5139 11.4375" clip-path="url(#clipPath2)" stroke="rgb(153,153,153)"/>
    </g>
  </g>
</svg>
