<?xml version="1.0" encoding="UTF-8"?>
<svg xmlns="http://www.w3.org/2000/svg" xmlns:xlink="http://www.w3.org/1999/xlink" fill-opacity="1" color-rendering="auto" color-interpolation="auto" stroke="black" text-rendering="auto" stroke-linecap="square" width="651" stroke-miterlimit="10" stroke-opacity="1" shape-rendering="auto" fill="black" stroke-dasharray="none" font-weight="normal" stroke-width="1" height="226" font-family="'Dialog'" font-style="normal" stroke-linejoin="miter" font-size="12" stroke-dashoffset="0" image-rendering="auto">
  <!--Generated by ySVG 2.5-->
  <defs id="genericDefs"/>
  <g>
    <defs id="defs1">
      <clipPath clipPathUnits="userSpaceOnUse" id="clipPath1">
        <path d="M0 0 L651 0 L651 226 L0 226 L0 0 Z"/>
      </clipPath>
      <clipPath clipPathUnits="userSpaceOnUse" id="clipPath2">
        <path d="M-87 -121 L564 -121 L564 105 L-87 105 L-87 -121 Z"/>
      </clipPath>
    </defs>
    <g fill="white" text-rendering="geometricPrecision" shape-rendering="geometricPrecision" transform="translate(87,121)" stroke="white">
      <rect x="-87" width="651" height="226" y="-121" clip-path="url(#clipPath2)" stroke="none"/>
    </g>
    <g text-rendering="geometricPrecision" stroke-dasharray="6,2" stroke-miterlimit="1.45" shape-rendering="geometricPrecision" transform="matrix(1,0,0,1,87,121)" stroke-linecap="butt">
      <rect fill="none" x="418.5208" width="130" height="104" y="-105.125" clip-path="url(#clipPath2)"/>
      <rect fill="none" x="30.5208" width="167" height="104" y="-103.125" clip-path="url(#clipPath2)"/>
    </g>
    <g fill="rgb(204,255,255)" text-rendering="geometricPrecision" shape-rendering="geometricPrecision" transform="matrix(1,0,0,1,87,121)" stroke="rgb(204,255,255)">
      <rect x="424.0208" y="-97.125" clip-path="url(#clipPath2)" width="119" rx="4" ry="4" height="34" stroke="none"/>
    </g>
    <g text-rendering="geometricPrecision" stroke-miterlimit="1.45" shape-rendering="geometricPrecision" font-family="sans-serif" transform="matrix(1,0,0,1,87,121)" stroke-linecap="butt">
      <text x="450.723" xml:space="preserve" y="-75.5898" clip-path="url(#clipPath2)" stroke="none">pointerUp()</text>
      <rect x="424.0208" y="-97.125" clip-path="url(#clipPath2)" fill="none" width="119" rx="4" ry="4" height="34" stroke="rgb(153,153,153)"/>
    </g>
    <g fill="rgb(204,255,255)" text-rendering="geometricPrecision" shape-rendering="geometricPrecision" transform="matrix(1,0,0,1,87,121)" stroke="rgb(204,255,255)">
      <rect x="36.5208" y="-97.125" clip-path="url(#clipPath2)" width="155" rx="4" ry="4" height="34" stroke="none"/>
    </g>
    <g text-rendering="geometricPrecision" stroke-miterlimit="1.45" shape-rendering="geometricPrecision" font-family="sans-serif" transform="matrix(1,0,0,1,87,121)" stroke-linecap="butt">
      <text x="45.5042" xml:space="preserve" y="-75.5898" clip-path="url(#clipPath2)" stroke="none">pointerDown(element1)</text>
      <rect x="36.5208" y="-97.125" clip-path="url(#clipPath2)" fill="none" width="155" rx="4" ry="4" height="34" stroke="rgb(153,153,153)"/>
    </g>
    <g fill="rgb(255,255,204)" text-rendering="geometricPrecision" shape-rendering="geometricPrecision" transform="matrix(1,0,0,1,87,121)" stroke="rgb(255,255,204)">
      <rect x="36.5208" y="-43.125" clip-path="url(#clipPath2)" width="155" rx="4" ry="4" height="34" stroke="none"/>
    </g>
    <g text-rendering="geometricPrecision" stroke-miterlimit="1.45" shape-rendering="geometricPrecision" font-family="sans-serif" transform="matrix(1,0,0,1,87,121)" stroke-linecap="butt">
      <text x="45.5042" xml:space="preserve" y="-21.5898" clip-path="url(#clipPath2)" stroke="none">pointerDown(element2)</text>
      <rect x="36.5208" y="-43.125" clip-path="url(#clipPath2)" fill="none" width="155" rx="4" ry="4" height="34" stroke="rgb(153,153,153)"/>
      <text x="92.5228" xml:space="preserve" y="64.9102" clip-path="url(#clipPath2)" stroke="none">Tick 1</text>
      <text x="283.5228" xml:space="preserve" y="64.9102" clip-path="url(#clipPath2)" stroke="none">Tick 2</text>
      <text x="462.0228" xml:space="preserve" y="64.9102" clip-path="url(#clipPath2)" stroke="none">Tick 3</text>
    </g>
    <g fill="rgb(204,255,255)" text-rendering="geometricPrecision" shape-rendering="geometricPrecision" transform="matrix(1,0,0,1,87,121)" stroke="rgb(204,255,255)">
      <rect x="-71.4792" y="-97.125" clip-path="url(#clipPath2)" width="84" rx="4" ry="4" height="34" stroke="none"/>
    </g>
    <g text-rendering="geometricPrecision" stroke-miterlimit="1.45" shape-rendering="geometricPrecision" font-family="sans-serif" transform="matrix(1,0,0,1,87,121)" stroke-linecap="butt">
      <text x="-51.0475" xml:space="preserve" y="-75.5898" clip-path="url(#clipPath2)" stroke="none">source 1</text>
      <rect x="-71.4792" y="-97.125" clip-path="url(#clipPath2)" fill="none" width="84" rx="4" ry="4" height="34" stroke="rgb(153,153,153)"/>
    </g>
    <g fill="rgb(255,255,204)" text-rendering="geometricPrecision" shape-rendering="geometricPrecision" transform="matrix(1,0,0,1,87,121)" stroke="rgb(255,255,204)">
      <rect x="-71.4792" y="-43.125" clip-path="url(#clipPath2)" width="84" rx="4" ry="4" height="34" stroke="none"/>
    </g>
    <g text-rendering="geometricPrecision" stroke-miterlimit="1.45" shape-rendering="geometricPrecision" font-family="sans-serif" transform="matrix(1,0,0,1,87,121)" stroke-linecap="butt">
      <text x="-51.0475" xml:space="preserve" y="-21.5898" clip-path="url(#clipPath2)" stroke="none">source 2</text>
      <rect x="-71.4792" y="-43.125" clip-path="url(#clipPath2)" fill="none" width="84" rx="4" ry="4" height="34" stroke="rgb(153,153,153)"/>
    </g>
    <g fill="rgb(204,255,255)" text-rendering="geometricPrecision" shape-rendering="geometricPrecision" transform="matrix(1,0,0,1,87,121)" stroke="rgb(204,255,255)">
      <rect x="227.5208" y="-97.125" clip-path="url(#clipPath2)" width="155" rx="4" ry="4" height="34" stroke="none"/>
    </g>
    <g text-rendering="geometricPrecision" stroke-miterlimit="1.45" shape-rendering="geometricPrecision" font-family="sans-serif" transform="matrix(1,0,0,1,87,121)" stroke-linecap="butt">
      <text x="280.1097" xml:space="preserve" y="-75.5898" clip-path="url(#clipPath2)" stroke="none">pause(5)</text>
      <rect x="227.5208" y="-97.125" clip-path="url(#clipPath2)" fill="none" width="155" rx="4" ry="4" height="34" stroke="rgb(153,153,153)"/>
    </g>
    <g fill="rgb(255,255,204)" text-rendering="geometricPrecision" shape-rendering="geometricPrecision" transform="matrix(1,0,0,1,87,121)" stroke="rgb(255,255,204)">
      <rect x="227.5208" y="-43.125" clip-path="url(#clipPath2)" width="155" rx="4" ry="4" height="34" stroke="none"/>
    </g>
    <g text-rendering="geometricPrecision" stroke-miterlimit="1.45" shape-rendering="geometricPrecision" font-family="sans-serif" transform="matrix(1,0,0,1,87,121)" stroke-linecap="butt">
      <text x="272.223" xml:space="preserve" y="-21.5898" clip-path="url(#clipPath2)" stroke="none">pointerUp()</text>
      <rect x="227.5208" y="-43.125" clip-path="url(#clipPath2)" fill="none" width="155" rx="4" ry="4" height="34" stroke="rgb(153,153,153)"/>
      <rect x="221.5208" y="-105.125" clip-path="url(#clipPath2)" fill="none" width="167" stroke-dasharray="6,2" height="104"/>
      <path fill="none" stroke-dasharray="6,2" d="M114.0208 0.875 L114.0208 22.875" clip-path="url(#clipPath2)"/>
      <path stroke-dasharray="6,2" d="M114.0208 30.875 L119.0208 18.875 L114.0208 21.875 L109.0208 18.875 Z" clip-path="url(#clipPath2)" stroke="none"/>
      <path fill="none" d="M114.0208 0.875 L114.0208 22.875" clip-path="url(#clipPath2)"/>
      <path d="M114.0208 30.875 L119.0208 18.875 L114.0208 21.875 L109.0208 18.875 Z" clip-path="url(#clipPath2)" stroke="none"/>
      <path fill="none" d="M483.5208 -1.125 L483.5208 22.875" clip-path="url(#clipPath2)"/>
      <path d="M483.5208 30.875 L488.5208 18.875 L483.5208 21.875 L478.5208 18.875 Z" clip-path="url(#clipPath2)" stroke="none"/>
      <path fill="none" d="M12.5268 -80.125 L36.5623 -80.125" clip-path="url(#clipPath2)" stroke="rgb(153,153,153)"/>
      <path fill="none" d="M12.5268 -26.125 L36.5623 -26.125" clip-path="url(#clipPath2)" stroke="rgb(153,153,153)"/>
      <path fill="none" d="M191.4747 -80.125 L227.54 -80.125" clip-path="url(#clipPath2)" stroke="rgb(153,153,153)"/>
      <path fill="none" d="M382.5481 -80.125 L424.012 -80.125" clip-path="url(#clipPath2)" stroke="rgb(153,153,153)"/>
      <path fill="none" d="M191.4747 -26.125 L227.54 -26.125" clip-path="url(#clipPath2)" stroke="rgb(153,153,153)"/>
      <path fill="none" d="M305.0208 -1.125 L305.0208 22.875" clip-path="url(#clipPath2)"/>
      <path d="M305.0208 30.875 L310.0208 18.875 L305.0208 21.875 L300.0208 18.875 Z" clip-path="url(#clipPath2)" stroke="none"/>
    </g>
  </g>
</svg>
