<?xml version="1.0" encoding="UTF-8"?>
<svg xmlns="http://www.w3.org/2000/svg" xmlns:xlink="http://www.w3.org/1999/xlink" fill-opacity="1" color-rendering="auto" color-interpolation="auto" stroke="black" text-rendering="auto" stroke-linecap="square" width="651" stroke-miterlimit="10" stroke-opacity="1" shape-rendering="auto" fill="black" stroke-dasharray="none" font-weight="normal" stroke-width="1" height="224" font-family="'Dialog'" font-style="normal" stroke-linejoin="miter" font-size="12" stroke-dashoffset="0" image-rendering="auto">
  <!--Generated by ySVG 2.5-->
  <defs id="genericDefs"/>
  <g>
    <defs id="defs1">
      <clipPath clipPathUnits="userSpaceOnUse" id="clipPath1">
        <path d="M0 0 L651 0 L651 224 L0 224 L0 0 Z"/>
      </clipPath>
      <clipPath clipPathUnits="userSpaceOnUse" id="clipPath2">
        <path d="M58 76 L709 76 L709 300 L58 300 L58 76 Z"/>
      </clipPath>
    </defs>
    <g fill="white" text-rendering="geometricPrecision" shape-rendering="geometricPrecision" transform="translate(-58,-76)" stroke="white">
      <rect x="58" width="651" height="224" y="76" clip-path="url(#clipPath2)" stroke="none"/>
    </g>
    <g text-rendering="geometricPrecision" stroke-dasharray="6,2" stroke-miterlimit="1.45" shape-rendering="geometricPrecision" transform="matrix(1,0,0,1,-58,-76)" stroke-linecap="butt">
      <rect fill="none" x="366.0208" width="167" height="104" y="91.9375" clip-path="url(#clipPath2)"/>
      <rect fill="none" x="563.0208" width="130" height="104" y="91.9375" clip-path="url(#clipPath2)"/>
      <rect fill="none" x="175.0208" width="167" height="104" y="91.9375" clip-path="url(#clipPath2)"/>
    </g>
    <g fill="rgb(204,255,255)" text-rendering="geometricPrecision" shape-rendering="geometricPrecision" transform="matrix(1,0,0,1,-58,-76)" stroke="rgb(204,255,255)">
      <rect x="181.0208" y="97.9375" clip-path="url(#clipPath2)" width="155" rx="4" ry="4" height="34" stroke="none"/>
    </g>
    <g text-rendering="geometricPrecision" stroke-miterlimit="1.45" shape-rendering="geometricPrecision" font-family="sans-serif" transform="matrix(1,0,0,1,-58,-76)" stroke-linecap="butt">
      <text x="190.0042" xml:space="preserve" y="119.4727" clip-path="url(#clipPath2)" stroke="none">pointerDown(element1)</text>
      <rect x="181.0208" y="97.9375" clip-path="url(#clipPath2)" fill="none" width="155" rx="4" ry="4" height="34" stroke="rgb(153,153,153)"/>
    </g>
    <g fill="rgb(255,255,204)" text-rendering="geometricPrecision" shape-rendering="geometricPrecision" transform="matrix(1,0,0,1,-58,-76)" stroke="rgb(255,255,204)">
      <rect x="568.5208" y="151.9375" clip-path="url(#clipPath2)" width="119" rx="4" ry="4" height="34" stroke="none"/>
    </g>
    <g text-rendering="geometricPrecision" stroke-miterlimit="1.45" shape-rendering="geometricPrecision" font-family="sans-serif" transform="matrix(1,0,0,1,-58,-76)" stroke-linecap="butt">
      <text x="595.223" xml:space="preserve" y="173.4727" clip-path="url(#clipPath2)" stroke="none">pointerUp()</text>
      <rect x="568.5208" y="151.9375" clip-path="url(#clipPath2)" fill="none" width="119" rx="4" ry="4" height="34" stroke="rgb(153,153,153)"/>
    </g>
    <g fill="rgb(255,255,204)" text-rendering="geometricPrecision" shape-rendering="geometricPrecision" transform="matrix(1,0,0,1,-58,-76)" stroke="rgb(255,255,204)">
      <rect x="181.0208" y="151.9375" clip-path="url(#clipPath2)" width="155" rx="4" ry="4" height="34" stroke="none"/>
    </g>
    <g text-rendering="geometricPrecision" stroke-miterlimit="1.45" shape-rendering="geometricPrecision" font-family="sans-serif" transform="matrix(1,0,0,1,-58,-76)" stroke-linecap="butt">
      <text x="190.0042" xml:space="preserve" y="173.4727" clip-path="url(#clipPath2)" stroke="none">pointerDown(element2)</text>
      <rect x="181.0208" y="151.9375" clip-path="url(#clipPath2)" fill="none" width="155" rx="4" ry="4" height="34" stroke="rgb(153,153,153)"/>
      <text x="240.72" xml:space="preserve" y="259.9727" clip-path="url(#clipPath2)" stroke="none">Tick 1</text>
      <text x="431.7201" xml:space="preserve" y="259.9727" clip-path="url(#clipPath2)" stroke="none">Tick 2</text>
      <text x="610.22" xml:space="preserve" y="259.9727" clip-path="url(#clipPath2)" stroke="none">Tick 3</text>
    </g>
    <g fill="rgb(204,255,255)" text-rendering="geometricPrecision" shape-rendering="geometricPrecision" transform="matrix(1,0,0,1,-58,-76)" stroke="rgb(204,255,255)">
      <rect x="73.0208" y="97.9375" clip-path="url(#clipPath2)" width="84" rx="4" ry="4" height="34" stroke="none"/>
    </g>
    <g text-rendering="geometricPrecision" stroke-miterlimit="1.45" shape-rendering="geometricPrecision" font-family="sans-serif" transform="matrix(1,0,0,1,-58,-76)" stroke-linecap="butt">
      <text x="89.9896" xml:space="preserve" y="119.4727" clip-path="url(#clipPath2)" stroke="none">source 1</text>
      <rect x="73.0208" y="97.9375" clip-path="url(#clipPath2)" fill="none" width="84" rx="4" ry="4" height="34" stroke="rgb(153,153,153)"/>
    </g>
    <g fill="rgb(255,255,204)" text-rendering="geometricPrecision" shape-rendering="geometricPrecision" transform="matrix(1,0,0,1,-58,-76)" stroke="rgb(255,255,204)">
      <rect x="73.0208" y="151.9375" clip-path="url(#clipPath2)" width="84" rx="4" ry="4" height="34" stroke="none"/>
    </g>
    <g text-rendering="geometricPrecision" stroke-miterlimit="1.45" shape-rendering="geometricPrecision" font-family="sans-serif" transform="matrix(1,0,0,1,-58,-76)" stroke-linecap="butt">
      <text x="89.9896" xml:space="preserve" y="173.4727" clip-path="url(#clipPath2)" stroke="none">source 2</text>
      <rect x="73.0208" y="151.9375" clip-path="url(#clipPath2)" fill="none" width="84" rx="4" ry="4" height="34" stroke="rgb(153,153,153)"/>
    </g>
    <g fill="rgb(204,255,255)" text-rendering="geometricPrecision" shape-rendering="geometricPrecision" transform="matrix(1,0,0,1,-58,-76)" stroke="rgb(204,255,255)">
      <rect x="372.0208" y="97.9375" clip-path="url(#clipPath2)" width="155" rx="4" ry="4" height="34" stroke="none"/>
    </g>
    <g text-rendering="geometricPrecision" stroke-miterlimit="1.45" shape-rendering="geometricPrecision" font-family="sans-serif" transform="matrix(1,0,0,1,-58,-76)" stroke-linecap="butt">
      <text x="416.723" xml:space="preserve" y="119.4727" clip-path="url(#clipPath2)" stroke="none">pointerUp()</text>
      <rect x="372.0208" y="97.9375" clip-path="url(#clipPath2)" fill="none" width="155" rx="4" ry="4" height="34" stroke="rgb(153,153,153)"/>
    </g>
    <g fill="rgb(255,255,204)" text-rendering="geometricPrecision" shape-rendering="geometricPrecision" transform="matrix(1,0,0,1,-58,-76)" stroke="rgb(255,255,204)">
      <rect x="372.0208" y="151.9375" clip-path="url(#clipPath2)" width="155" rx="4" ry="4" height="34" stroke="none"/>
    </g>
    <g text-rendering="geometricPrecision" stroke-miterlimit="1.45" shape-rendering="geometricPrecision" font-family="sans-serif" transform="matrix(1,0,0,1,-58,-76)" stroke-linecap="butt">
      <text x="382.2289" xml:space="preserve" y="173.4727" clip-path="url(#clipPath2)" stroke="none">pointerMove(element3)</text>
      <rect x="372.0208" y="151.9375" clip-path="url(#clipPath2)" fill="none" width="155" rx="4" ry="4" height="34" stroke="rgb(153,153,153)"/>
      <path fill="none" stroke-dasharray="6,2" d="M258.5208 195.9375 L258.5208 217.9375" clip-path="url(#clipPath2)"/>
      <path stroke-dasharray="6,2" d="M258.5208 225.9375 L263.5208 213.9375 L258.5208 216.9375 L253.5208 213.9375 Z" clip-path="url(#clipPath2)" stroke="none"/>
      <path fill="none" d="M258.5208 195.9375 L258.5208 217.9375" clip-path="url(#clipPath2)"/>
      <path d="M258.5208 225.9375 L263.5208 213.9375 L258.5208 216.9375 L253.5208 213.9375 Z" clip-path="url(#clipPath2)" stroke="none"/>
      <path fill="none" d="M449.5208 195.9375 L449.5208 217.9375" clip-path="url(#clipPath2)"/>
      <path d="M449.5208 225.9375 L454.5208 213.9375 L449.5208 216.9375 L444.5208 213.9375 Z" clip-path="url(#clipPath2)" stroke="none"/>
      <path fill="none" d="M628.0208 195.9375 L628.0208 217.9375" clip-path="url(#clipPath2)"/>
      <path d="M628.0208 225.9375 L633.0208 213.9375 L628.0208 216.9375 L623.0208 213.9375 Z" clip-path="url(#clipPath2)" stroke="none"/>
      <path fill="none" d="M157.0268 114.9375 L181.0623 114.9375" clip-path="url(#clipPath2)" stroke="rgb(153,153,153)"/>
      <path fill="none" d="M157.0268 168.9375 L181.0623 168.9375" clip-path="url(#clipPath2)" stroke="rgb(153,153,153)"/>
      <path fill="none" d="M335.9747 114.9375 L372.04 114.9375" clip-path="url(#clipPath2)" stroke="rgb(153,153,153)"/>
      <path fill="none" d="M335.9747 168.9375 L372.04 168.9375" clip-path="url(#clipPath2)" stroke="rgb(153,153,153)"/>
      <path fill="none" d="M568.5353 168.9375 L527.0139 168.9375" clip-path="url(#clipPath2)" stroke="rgb(153,153,153)"/>
    </g>
  </g>
</svg>
